<svg width="36" height="36" viewBox="0 0 36 36" fill="none" xmlns="http://www.w3.org/2000/svg">
<g clip-path="url(#clip0_1_63767)">
<mask id="mask0_1_63767" style="mask-type:alpha" maskUnits="userSpaceOnUse" x="8" y="8" width="20" height="20">
<path fill-rule="evenodd" clip-rule="evenodd" d="M13.833 25.4999C13.833 24.5794 14.5792 23.8333 15.4997 23.8333C16.4201 23.8333 17.1663 24.5794 17.1663 25.4999C17.1663 26.4204 16.4201 27.1666 15.4997 27.1666C14.5792 27.1666 13.833 26.4204 13.833 25.4999Z" fill="#7A869A"/>
<path fill-rule="evenodd" clip-rule="evenodd" d="M23 25.4999C23 24.5794 23.7462 23.8333 24.6667 23.8333C25.5871 23.8333 26.3333 24.5794 26.3333 25.4999C26.3333 26.4204 25.5871 27.1666 24.6667 27.1666C23.7462 27.1666 23 26.4204 23 25.4999Z" fill="#7A869A"/>
<path fill-rule="evenodd" clip-rule="evenodd" d="M8 8.83333C8 8.3731 8.3731 8 8.83333 8H12.1667C12.5639 8 12.9058 8.28032 12.9838 8.66979L13.6837 12.1667H27.1667C27.415 12.1667 27.6504 12.2774 27.8087 12.4688C27.9671 12.6602 28.0318 12.9121 27.9852 13.1561L26.6507 20.154C26.5364 20.7295 26.2233 21.2465 25.7663 21.6144C25.3115 21.9805 24.743 22.1758 24.1595 22.1667H16.0739C15.4903 22.1758 14.9218 21.9805 14.4671 21.6144C14.0102 21.2466 13.6972 20.7299 13.5828 20.1547C13.5827 20.1545 13.5828 20.155 13.5828 20.1547L12.1907 13.1993C12.185 13.1763 12.1803 13.1529 12.1766 13.1292L11.4836 9.66667H8.83333C8.3731 9.66667 8 9.29357 8 8.83333ZM14.0173 13.8333L15.2174 19.8293C15.2555 20.0212 15.3598 20.1935 15.5122 20.3161C15.6645 20.4388 15.8552 20.5039 16.0507 20.5002L16.0667 20.5H24.1667L24.1826 20.5002C24.3782 20.5039 24.5688 20.4388 24.7212 20.3161C24.8728 20.194 24.9769 20.0228 25.0154 19.832L26.1594 13.8333H14.0173Z" fill="#7A869A"/>
</mask>
<g mask="url(#mask0_1_63767)">
<rect x="8" y="8" width="20" height="20" fill="#334155"/>
</g>
</g>
<defs>
<clipPath id="clip0_1_63767">
<rect width="20" height="20" fill="white" transform="translate(8 8)"/>
</clipPath>
</defs>
</svg>
